<svg width="40" height="40" viewBox="0 0 40 40" fill="none" xmlns="http://www.w3.org/2000/svg">
  <circle cx="20" cy="20" r="19" fill="white" stroke="#CAD4E1" stroke-width="2"/>
  <path d="M25.92 20.24C25.92 19.67 25.87 19.13 25.78 18.6H20V21.01H23.3C23.16 21.79 22.72 22.45 22.06 22.9V24.47H24.08C25.26 23.39 25.92 21.79 25.92 20.24Z" fill="#4285F4"/>
  <path d="M20 26.2C21.66 26.2 23.05 25.65 24.08 24.47L22.06 22.9C21.5 23.27 20.79 23.49 20 23.49C18.4 23.49 17.03 22.41 16.53 20.96H14.44V22.58C15.46 24.61 17.57 26.2 20 26.2Z" fill="#34A853"/>
  <path d="M16.53 20.96C16.4 20.59 16.33 20.19 16.33 19.78C16.33 19.37 16.4 18.97 16.53 18.6V16.98H14.44C14.01 17.85 13.76 18.81 13.76 19.78C13.76 20.75 14.01 21.71 14.44 22.58L16.53 20.96Z" fill="#FBBC04"/>
  <path d="M20 16.08C20.86 16.08 21.63 16.38 22.24 16.95L24.13 15.06C23.05 14.09 21.66 13.35 20 13.35C17.57 13.35 15.46 14.95 14.44 16.98L16.53 18.6C17.03 17.15 18.4 16.08 20 16.08Z" fill="#EA4335"/>
</svg>
