<svg width="40" height="40" viewBox="0 0 40 40" fill="none" xmlns="http://www.w3.org/2000/svg" role="img" aria-label="Google">
  <circle cx="20" cy="20" r="19" fill="white" stroke="#CAD4E1" stroke-width="2"/>
  <path d="M27.5 20.2c0-.55-.05-1.09-.14-1.6H20v3.03h4.21c-.18.98-.73 1.81-1.56 2.37v1.97h2.53c1.48-1.36 2.32-3.36 2.32-5.77Z" fill="#4285F4"/>
  <path d="M20 28c2.12 0 3.9-.7 5.2-1.9l-2.53-1.97c-.7.47-1.59.74-2.67.74-2.05 0-3.78-1.38-4.4-3.23h-2.61v2.03C14.28 26.23 16.93 28 20 28Z" fill="#34A853"/>
  <path d="M15.6 21.64c-.16-.47-.25-.98-.25-1.5s.09-1.03.25-1.5v-2.03h-2.61A7.96 7.96 0 0 0 12.14 20c0 1.29.31 2.51.85 3.59l2.61-1.95Z" fill="#FBBC05"/>
  <path d="M20 15.27c1.15 0 2.18.4 2.99 1.17l2.25-2.25C23.88 12.92 22.1 12.14 20 12.14c-3.07 0-5.72 1.77-7.01 4.34l2.61 2.03c.62-1.86 2.35-3.24 4.4-3.24Z" fill="#EA4335"/>
</svg>
